<?xml version="1.0" encoding="UTF-8"?>
<svg width="457px" height="285px" viewBox="0 0 457 285" version="1.1" xmlns="http://www.w3.org/2000/svg" xmlns:xlink="http://www.w3.org/1999/xlink">
    <title>FF75FD9C-7982-4558-BA96-EADA119BCE60@1x</title>
    <defs>
        <linearGradient x1="49.9946628%" y1="99.9937813%" x2="49.9946628%" y2="-0.000220870294%" id="linearGradient-1">
            <stop stop-color="#808080" stop-opacity="0.25" offset="0%"></stop>
            <stop stop-color="#808080" stop-opacity="0.12" offset="54%"></stop>
            <stop stop-color="#808080" stop-opacity="0.1" offset="100%"></stop>
        </linearGradient>
    </defs>
    <g id="Empty-states" stroke="none" stroke-width="1" fill="none" fill-rule="evenodd">
        <g id="Group-2" fill-rule="nonzero">
            <path d="M120.465262,198.014832 L120.465262,155.546673 L142.441127,155.546673 L142.441127,125.173876 L120.465262,125.173876 L120.465262,2.33875786 L80.9355039,2.33875786 L0,132.027914 L1.8759885,155.546673 L81.3375014,155.546673 L81.3375014,198.014832 L120.465262,198.014832 Z M81.7285154,125.513338 L35.8048734,125.513338 L76.8944479,63.2714901 L80.9228375,54.5710167 L81.7285154,54.7048702 L81.7285154,125.513338 Z M229.041349,201.133176 C248.923287,201.133176 264.887051,194.598809 276.932639,181.530076 C288.978228,168.461343 295.001022,150.469456 295.001022,127.554417 L295.001022,127.554417 L295.001022,73.7130264 C295.001022,50.8874991 288.933449,32.8956129 276.798302,19.7373677 C264.663155,6.57912258 248.654613,0 228.772675,0 C208.801178,0 192.792636,6.57912258 180.747047,19.7373677 C168.701458,32.8956129 162.678664,50.8874991 162.678664,73.7130264 L162.678664,73.7130264 L162.678664,127.554417 C162.678664,150.469456 168.723848,168.461343 180.814216,181.530076 C192.904583,194.598809 208.980295,201.133176 229.041349,201.133176 Z M228.650563,170.729324 C220.032516,170.729324 213.369079,167.318171 208.660249,160.495865 C203.951419,153.673559 201.597005,143.886002 201.597005,131.133194 L201.597005,131.133194 L201.597005,69.73244 C201.597005,57.247174 203.929208,47.5710929 208.593615,40.7041966 C213.258021,33.8373003 219.854825,30.4038522 228.384025,30.4038522 C236.82438,30.4038522 243.421184,33.8373003 248.174436,40.7041966 C252.927689,47.5710929 255.304315,57.247174 255.304315,69.73244 L255.304315,69.73244 L255.304315,131.133194 C255.304315,143.886002 252.972112,153.673559 248.307705,160.495865 C243.643298,167.318171 237.090918,170.729324 228.650563,170.729324 Z M434.925454,198.014832 L434.925454,155.546673 L456.90132,155.546673 L456.90132,125.173876 L434.925454,125.173876 L434.925454,2.33875786 L395.395697,2.33875786 L314.460193,132.027914 L316.336181,155.546673 L395.797694,155.546673 L395.797694,198.014832 L434.925454,198.014832 Z M396.188708,125.513338 L350.265066,125.513338 L391.354641,63.2714901 L395.38303,54.5710167 L396.188708,54.7048702 L396.188708,125.513338 Z" id="404" fill="#D0D0D0"></path>
            <g id="undraw_blank_canvas_3rbb" transform="translate(135.266027, 40.488866)">
                <ellipse id="Oval" fill="#6C63FF" opacity="0.1" cx="118.302539" cy="237.502853" rx="42.0285334" ry="7.0082809"></ellipse>
                <polygon id="Path" fill="#000000" opacity="0.1" points="179.788726 158.075669 179.345112 161.969159 176.675502 161.965642 178.097445 158.075669"></polygon>
                <polygon id="Path" fill="#000000" opacity="0.1" points="181.455194 88.9073775 185.23687 88.7715581 185.120357 90.3289539 181.345339 90.3289539"></polygon>
                <path d="M163.126153,42.6529793 C162.32661,42.2307369 153.616176,35.6578314 153.616176,35.6578314 L139.559021,26.7520369 C139.559021,26.7520369 139.485054,26.5409158 139.35121,26.1784911 C143.208034,21.8047643 142.366225,15.4570547 138.442479,10.9953608 C133.687491,5.58362161 112.201987,-6.06674794 105.728158,3.89817098 C104.822949,5.30564541 104.791249,6.90312888 104.555261,8.45135074 C104.002274,12.0650413 102.220033,15.566134 99.4233957,18.5147929 C97.2678009,20.7913828 94.4394633,22.8885197 93.1996441,25.4641978 C93.1996441,25.4325297 93.1749886,25.4008615 93.164422,25.3656746 C92.8651365,25.9177191 92.6479987,26.5103974 92.5198569,27.1250177 C91.9034695,30.2672043 94.0167977,33.2791996 95.1403839,36.3369378 C95.5175255,37.3724137 95.7912419,38.4426102 95.9575374,39.5319047 C95.9857151,39.3137462 96.0103706,39.0991063 96.0350261,38.8809478 C96.3088554,40.4319823 96.4022271,42.0094478 96.313281,43.5819124 C88.5115777,45.1688398 88.5080555,58.5011413 88.5080555,58.5011413 C88.5080555,58.5011413 87.5464911,63.8002825 87.7085129,65.710929 C87.8705348,67.6215755 87.8670126,71.752513 87.8670126,72.7483011 C87.8670126,73.7440893 86.9054482,79.9545702 86.8103484,80.7005316 C86.8112826,80.7110671 86.8112826,80.7216644 86.8103484,80.7321998 C86.6694599,81.548535 85.2077412,85.482426 88.7405216,86.3620975 C88.9870765,86.4254338 89.2477203,86.4782141 89.5189308,86.5274757 C89.670386,89.7118866 89.9451186,96.3797967 89.7020859,97.8646822 C89.7020859,97.8646822 90.9876939,106.823257 92.0549247,109.099847 C92.7297938,110.434746 93.5193854,111.708601 94.4148078,112.907065 C94.3373137,113.452559 94.1529968,113.977456 93.8723869,114.451768 C93.3264438,115.236435 93.6082209,115.880355 94.5204742,116.158331 C94.4887743,116.42927 94.4535522,116.735396 94.4148078,117.080227 C94.0238421,120.535577 93.4391546,127.404052 94.4324189,130.884032 C95.7955156,135.655371 95.8765265,137.245817 95.8765265,137.245817 C95.8765265,137.245817 95.8765265,138.674403 96.4400807,139.469626 C97.0036349,140.264849 98.042688,147.661127 98.042688,148.853962 C98.042688,150.046797 100.768881,160.778789 99.9658166,163.322799 C99.1627519,165.866809 99.807317,169.445313 99.807317,169.445313 C99.807317,169.445313 99.3247737,175.726167 98.7506529,177.077343 C98.1765321,178.428518 97.9475882,200.212704 98.8281416,205.856676 C99.708695,211.500649 100.272249,216.191057 100.272249,216.191057 C100.272249,216.191057 99.7122172,221.360007 100.191238,222.0743 C100.670259,222.788593 101.554335,227.084909 100.913292,227.320661 C100.272249,227.556413 99.9517278,229.308719 99.9517278,229.308719 C100.290726,229.823532 100.656358,230.320341 101.047136,230.797123 C100.800013,230.710956 100.558811,230.608695 100.325082,230.490997 C100.578682,230.842866 100.959081,231.342519 101.427535,231.898472 L100.987259,237.616336 C100.9491,238.076627 101.245434,238.498479 101.691701,238.619162 C104.557343,239.397338 107.619141,238.537323 109.658949,236.381278 C113.667228,232.327751 115.030325,232.883704 115.752378,230.420623 C115.829867,230.156722 115.896789,229.896339 115.953145,229.650031 C116.47091,227.454371 114.128638,225.821701 112.265387,226.757671 C112.522508,225.01944 112.723275,223.045458 112.529553,221.930034 C112.128021,219.625295 112.209031,213.583711 112.209031,213.583711 L111.648999,184.642518 C111.648999,184.642518 112.688053,178.917616 113.89265,176.693806 C115.097247,174.469996 114.949314,166.676107 114.949314,166.676107 L116.31241,141.074147 L117.594496,128.593368 C117.594496,128.593368 118.876582,124.300571 120.479189,129.071909 C120.479189,129.071909 119.598636,138.688478 120.000168,140.996736 C120.401701,143.304994 120.961733,154.512009 120.5602,156.975089 C120.158668,159.43817 118.397561,172.956961 119.503536,176.373606 C120.609511,179.79025 121.842286,183.931743 121.595731,185.286437 C121.349176,186.641132 120.539067,215.972899 120.539067,215.972899 C120.539067,215.972899 122.705228,221.602796 121.102621,223.446588 C119.500014,225.290379 121.02161,232.595171 121.02161,232.595171 C121.02161,232.595171 121.215332,232.7324 121.54642,232.922409 L121.500631,233.531142 L120.996955,240.107566 C120.959908,240.568346 121.255451,240.990549 121.701397,241.11391 C124.567042,241.892893 127.629255,241.032761 129.668645,238.876026 C133.676924,234.818981 135.040021,235.378452 135.762075,232.911853 C135.839563,232.647952 135.906485,232.391088 135.966363,232.141261 C136.529917,229.745036 133.676924,228.006805 131.767884,229.57262 L131.672784,229.65355 C131.573044,229.738249 131.468368,229.816971 131.359307,229.889302 C131.308647,229.926572 131.255711,229.960652 131.200808,229.991344 C131.60234,228.175702 132.187028,225.065183 131.905251,223.608447 C131.503718,221.462049 132.303261,214.945442 132.303261,214.945442 C132.303261,214.945442 134.627922,207.151553 134.708933,204.037515 L135.349976,179.234297 C135.349976,179.234297 135.272487,169.135668 135.593008,166.672588 C135.91353,164.209508 138.477701,142.900345 141.041873,136.538561 C143.01079,131.668699 143.891344,119.2407 143.370056,112.938733 C143.341878,112.629089 143.313701,112.330001 143.278479,112.052024 C146.423815,109.73321 146.737292,105.87673 146.737292,105.87673 C146.737292,105.87673 143.849077,100.366468 141.070051,98.0335792 C138.291024,95.7006903 137.692248,91.6893882 137.79087,89.9828255 C137.838079,88.9429173 137.495196,87.9228274 136.829305,87.1221337 C136.829305,87.1221337 135.547219,82.9876776 134.691322,82.5654352 C134.621308,82.5298296 134.558118,82.4821864 134.504644,82.4246878 C133.923479,81.8018804 134.3708,80.0214252 134.3708,80.0214252 L134.3708,79.9651262 C134.472944,79.55344 135.075243,76.8862759 134.89561,76.2036508 C134.680755,75.4647268 135.001276,71.9636341 135.001276,71.9636341 C135.001276,71.9636341 137.033594,65.9220502 136.713072,61.1507119 C136.392551,56.3793736 140.883373,56.8051346 140.883373,56.8051346 L154.750329,56.6608685 L156.32828,56.6608685 C156.884702,56.1888692 157.393187,55.6632153 157.846354,55.0915345 C160.488015,54.7783714 165.831213,53.7825833 166.429989,50.8691112 C167.243621,47.0020752 163.929218,43.0787403 163.126153,42.6529793 Z M98.8809748,86.7632277 L98.9760746,84.338853 C99.3036405,84.6203479 99.5220177,84.7998009 99.5220177,84.7998009 C99.6988527,85.4341266 99.7073498,86.1035141 99.5466732,86.7421156 C99.3724095,87.3496746 98.9301665,87.8445944 98.3455983,88.0862537 C98.2785553,88.1153685 98.2137988,88.1494786 98.1518766,88.1882956 L98.0180325,86.8195267 L98.8809748,86.7632277 Z M149.178187,44.1871264 C148.589977,43.9232249 146.610493,43.9760052 145.592573,43.9760052 C144.574653,43.9760052 142.922735,43.1280019 142.922735,43.1280019 C142.570514,42.4418581 140.622729,42.0336905 138.8898,41.8014572 C137.572492,38.5572287 135.719808,35.3939299 135.469731,32.0124726 C135.469731,31.8893186 135.469731,31.7661646 135.45212,31.6430106 L135.652886,31.9948792 C135.652886,31.9948792 143.7258,37.1391982 144.634531,38.6803827 C145.338974,39.8556238 148.730865,42.4805636 150.301773,43.6558048 C150.085472,43.937725 149.782172,44.140547 149.43883,44.2328693 C149.349367,44.2425678 149.258985,44.2267058 149.178187,44.1871264 Z" id="Shape" fill="url(#linearGradient-1)"></path>
                <path d="M136.140514,232.104489 C136.0807,232.353754 136.017368,232.613701 135.939961,232.87721 C135.236268,235.36986 133.888694,234.79299 129.958565,238.863132 C127.962655,241.028352 124.945095,241.89504 122.122935,241.113639 C121.67681,240.994251 121.379981,240.567667 121.419241,240.102335 L121.915345,233.500373 L122.151082,230.324024 C122.151082,230.324024 128.428031,232.104489 131.6228,229.843299 C131.729978,229.769191 131.833323,229.689558 131.932425,229.604716 C131.957073,229.582214 131.980561,229.558443 132.002795,229.533498 C132.848184,228.825188 134.045173,228.739707 134.980463,229.320854 C135.915753,229.902001 136.38208,231.02099 136.140514,232.104489 L136.140514,232.104489 Z" id="Path" fill="#67647E"></path>
                <path d="M116.68286,229.768395 C116.623046,230.01766 116.559713,230.277608 116.482307,230.541116 C115.778613,233.033767 114.43104,232.456896 110.50091,236.527038 C108.505,238.692259 105.487441,239.558946 102.66528,238.777545 C102.219156,238.658158 101.922327,238.231573 101.961587,237.766241 L102.457691,231.164279 L102.693428,227.98793 C102.693428,227.98793 108.970376,229.768395 112.165146,227.507205 C112.272324,227.433097 112.375668,227.353465 112.474771,227.268623 C112.499419,227.246121 112.522907,227.22235 112.54514,227.197404 C113.39053,226.489094 114.587518,226.403614 115.522809,226.984761 C116.458099,227.565907 116.924426,228.684896 116.68286,229.768395 Z" id="Path" fill="#67647E"></path>
                <path d="M110.26084,230.619537 L110.519477,233.965819 C106.841082,237.516906 102.462212,232.230196 101.179803,230.494572 C104.552862,232.174656 110.26084,230.619537 110.26084,230.619537 Z" id="Path" fill="#000000" opacity="0.1"></path>
                <path d="M131.073361,231.732727 L131.526973,231.436033 C128.361843,236.176472 123.659846,233.989603 122.194069,233.139524 L122.420876,230.165916 C122.420876,230.165916 128.460012,231.832737 131.533744,229.715874 C131.293397,230.875981 131.073361,231.732727 131.073361,231.732727 Z" id="Path" fill="#000000" opacity="0.1"></path>
                <path d="M141.545597,137.088576 C139.009589,143.395205 136.477113,164.523996 136.159229,166.986149 C135.841345,169.448302 135.922582,179.444644 135.922582,179.444644 L135.286814,204.027484 C135.205577,207.105175 132.909748,214.832819 132.909748,214.832819 C132.909748,214.832819 132.11857,221.297729 132.514159,223.425733 C132.909748,225.553737 131.486334,231.163928 131.486334,231.163928 L131.959628,230.847366 C128.000206,236.826881 121.744955,232.345762 121.744955,232.345762 C121.744955,232.345762 120.240304,225.092962 121.826192,223.278004 C123.41208,221.463045 121.271661,215.866923 121.271661,215.866923 C121.271661,215.866923 122.062839,186.771308 122.299486,185.431193 C122.536133,184.091079 121.349366,179.989835 120.240304,176.599098 C119.131242,173.208362 120.876072,159.803697 121.271661,157.359131 C121.66725,154.914564 121.112719,143.796184 120.71713,141.509899 C120.321541,139.223614 121.190424,129.681013 121.190424,129.681013 C119.608068,124.950161 118.340064,129.209686 118.340064,129.209686 L117.07206,141.587281 L115.726351,166.979115 C115.726351,166.979115 115.885293,174.71731 114.698526,176.915661 C113.511759,179.114012 112.480402,184.798068 112.480402,184.798068 L113.034933,213.503256 C113.034933,213.503256 112.957228,219.482771 113.352817,221.779608 C113.748406,224.076445 112.480402,229.982095 112.480402,229.982095 C108.047687,240.382933 100.927085,229.106272 100.927085,229.106272 C100.927085,229.106272 101.244969,227.372213 101.877205,227.136549 C102.509441,226.900886 101.640558,222.641361 101.170796,221.930854 C100.701034,221.220347 101.248501,216.095552 101.248501,216.095552 C101.248501,216.095552 100.69397,211.4456 99.8356831,205.84596 C98.9773962,200.24632 99.2034471,178.642686 99.7579781,177.302571 C100.312509,175.962456 100.785803,169.733209 100.785803,169.733209 C100.785803,169.733209 100.153567,166.184191 100.944745,163.658725 C101.735923,161.13326 99.0445051,150.493241 99.0445051,149.30789 C99.0445051,148.122539 98.0166801,140.792358 97.4621492,140.004469 C96.9076182,139.21658 96.9076182,137.795566 96.9076182,137.795566 C96.9076182,137.795566 96.8299132,136.219788 95.4948004,131.488936 C94.512892,128.034887 95.0921473,121.225275 95.4771402,117.795848 C95.6148899,116.52608 95.7349794,115.717087 95.7349794,115.717087 C95.7349794,115.717087 141.146475,108.383388 142.958414,110.040066 C143.38226,110.430493 143.664823,111.770607 143.830829,113.680535 C144.371232,119.927369 143.481157,132.273308 141.545597,137.088576 Z" id="Path" fill="#444053"></path>
                <path d="M124.528988,172.870908 C124.731958,172.870908 129.535585,172.990908 131.29466,172.885908 C133.053735,172.780908 124.528988,172.870908 124.528988,172.870908 Z" id="Path" fill="#000000" opacity="0.1"></path>
                <path d="M124.528988,175.207942 C124.528988,175.207942 131.183003,176.443085 131.52232,175.80038 C131.861638,175.157675 124.528988,175.207942 124.528988,175.207942 Z" id="Path" fill="#000000" opacity="0.1"></path>
                <path d="M102.736415,173.649627 C102.736415,173.649627 106.545121,173.840585 108.618167,174.92268 C110.691213,176.004776 102.736415,173.649627 102.736415,173.649627 Z" id="Path" fill="#000000" opacity="0.1"></path>
                <path d="M90.2835163,85.7634119 C90.2835163,85.7634119 90.8827755,96.865189 90.5575677,98.8310176 C90.5575677,98.8310176 91.8657068,107.810553 92.9582586,110.092763 C94.0508105,112.374972 96.4003451,115.247286 96.4003451,115.247286 L99.6231904,93.2072547 L98.8558462,85.6567666 L90.2835163,85.7634119 Z" id="Path" fill="#EFB7B9"></path>
                <ellipse id="Oval" fill="#EFB7B9" cx="122.583223" cy="22.9715874" rx="12.0637457" ry="12.0698171"></ellipse>
                <path d="M116.246876,29.2325913 C116.246876,29.2325913 112.40352,36.6367252 108.560164,40.0999491 C104.716808,43.563173 131.620301,47.5005706 132.25967,47.5005706 C132.899039,47.5005706 127.455475,31.7544927 128.416314,29.8542856 C129.377153,27.9540786 116.246876,29.2325913 116.246876,29.2325913 Z" id="Path" fill="#EFB7B9"></path>
                <path d="M143.208336,113.627122 C142.613253,114.074886 141.956565,114.436974 141.258,114.70251 C136.420884,116.568828 131.157792,119.160165 127.581002,118.126405 C124.004212,117.092646 116.428176,118.126405 116.428176,118.126405 C116.428176,118.126405 101.16697,116.881037 98.1217698,117.606056 C96.7347075,117.935611 95.6574459,117.921735 94.9533533,117.685843 C95.0906514,116.433537 95.2103471,115.635669 95.2103471,115.635669 C95.2103471,115.635669 140.525744,108.402819 142.331741,110.036715 C142.761237,110.421773 143.035833,111.743459 143.208336,113.627122 Z" id="Path" fill="#000000" opacity="0.1"></path>
                <path d="M147.099867,106.748126 C147.099867,106.748126 146.679133,111.993928 141.81417,113.881715 C136.949206,115.769501 131.67058,118.390648 128.078427,117.344996 C124.486274,116.299345 116.877698,117.344996 116.877698,117.344996 C116.877698,117.344996 101.550943,116.085302 98.4926636,116.818662 C95.4343838,117.552021 93.8398356,116.611637 94.7909076,115.246676 C95.7419796,113.881715 95.6394476,109.372781 95.6394476,107.484994 C95.6394476,105.597207 94.5787726,97.9407929 95.5298446,96.5758317 C96.4809165,95.2108706 97.325921,89.9685776 99.228065,89.1264422 C99.806601,88.8846505 100.243482,88.3955788 100.416021,87.79657 C100.573246,87.1652025 100.564725,86.5043708 100.391272,85.877203 C100.391272,85.877203 100.069534,85.6140357 99.627586,85.2245481 C98.5068059,84.2315301 96.6117331,82.3893588 97.2198535,81.7858285 C98.064858,80.943693 97.2198535,75.4908662 97.2198535,75.4908662 C97.2198535,75.4908662 95.211642,71.2977336 95.9541146,69.7257475 C96.6965871,68.1537614 89.5052101,59.8657453 89.5052101,59.8657453 C89.5052101,59.8657453 89.5052101,45.6055856 98.1709255,44.973984 C98.1709255,44.973984 104.301627,45.1845179 105.040564,42.4581045 C105.779501,39.731691 110.640929,38.156196 110.640929,38.156196 L121.739126,40.5703176 C121.739126,40.5703176 131.564513,42.6756561 133.364125,41.4089441 C135.163737,40.1422321 136.54615,43.0861971 136.54615,43.0861971 C136.54615,43.0861971 142.673316,43.4019979 143.306186,44.6616921 C143.939055,45.9213864 141.30151,58.1884923 141.30151,58.1884923 C141.30151,58.1884923 136.860817,57.7709335 137.179019,62.4904007 C137.497222,67.2098679 135.467797,73.1890294 135.467797,73.1890294 C135.467797,73.1890294 135.149594,76.6488024 135.361729,77.382162 C135.559722,78.0593792 134.944531,80.6980702 134.845534,81.1051023 L134.845534,81.1577358 C134.845534,81.1577358 134.403586,82.9121846 134.976351,83.5367683 C135.029432,83.5932781 135.091551,83.6407013 135.160201,83.6771243 C136.008741,84.0946831 137.281551,88.1860576 137.281551,88.1860576 C137.941378,88.9802689 138.280334,89.9894611 138.232623,91.017738 C138.130091,92.6984999 138.762961,96.6810987 141.510109,98.9899533 C144.257258,101.298808 147.099867,106.748126 147.099867,106.748126 Z" id="Path" fill="#A36468"></path>
                <path d="M99.6231904,81.7257333 L99.6231904,82.1693563 L99.4340694,87.0596887 C99.4340694,87.0596887 92.9934508,87.5801598 89.487709,86.7103792 C85.9819672,85.8405987 87.4564101,81.9597706 87.5964996,81.1563589 C87.5977822,81.1459186 87.5977822,81.1353613 87.5964996,81.124921 C87.6980646,80.3913712 88.6471715,74.2854419 88.6471715,73.293403 C88.6471715,72.3013642 88.6471715,68.2284159 88.4895707,66.349131 C88.3319699,64.4698461 89.2600634,59.2336974 89.2600634,59.2336974 L89.9394979,58.4023409 L97.3152145,61.2212682 L99.6231904,81.7257333 Z" id="Path" fill="#A36468"></path>
                <path d="M99.6231904,82.8049999 L99.4340694,87.8340062 C99.4340694,87.8340062 92.9934508,88.3692362 89.487709,87.4747915 C85.9819672,86.5803468 87.4564101,82.5894711 87.5964996,81.7632772 L99.6231904,82.8049999 Z" id="Path" fill="#000000" opacity="0.1"></path>
                <path d="M100.404221,87.9928603 C100.559969,87.3319467 100.551528,86.6401901 100.379704,85.9836728 C100.379704,85.9836728 100.060988,85.7081901 99.6231904,85.3004756 C105.167454,84.4887198 127.123861,81.329851 134.51738,80.9845793 L134.51738,81.0396759 C134.51738,81.0396759 134.079583,82.8762275 134.646968,83.5300399 L100.404221,87.9928603 Z" id="Path" fill="#000000" opacity="0.1"></path>
                <path d="M135.258746,91.1076518 C135.258746,91.1076518 136.624462,98.5961108 131.533744,101.230724 C131.530236,101.244302 134.419655,97.5307073 135.258746,91.1076518 Z" id="Path" fill="#000000" opacity="0.1"></path>
                <path d="M101.958109,102.368956 C101.958109,102.368956 114.133344,100.175049 116.516212,101.878983 C118.89908,103.582917 101.958109,102.368956 101.958109,102.368956 Z" id="Path" fill="#000000" opacity="0.1"></path>
                <path d="M131.168419,53.7301536 C131.168419,53.7301536 128.917663,61.8016568 130.603638,63.6553293 C132.289613,65.5090018 131.168419,53.7301536 131.168419,53.7301536 Z" id="Path" fill="#000000" opacity="0.1"></path>
                <path d="M95.7768033,47.5005706 C95.7768033,47.5005706 97.022042,50.2691913 96.2668161,53.1388566 C95.5115902,56.0085218 95.7768033,47.5005706 95.7768033,47.5005706 Z" id="Path" fill="#000000" opacity="0.1"></path>
                <path d="M91.8401286,73.1976006 C91.8401286,73.1976006 93.9578872,74.5325703 93.2530917,76.6191317 C92.5482963,78.705693 91.8401286,73.1976006 91.8401286,73.1976006 Z" id="Path" fill="#000000" opacity="0.1"></path>
                <path d="M91.8401286,66.9680175 C91.8401286,66.9680175 93.8916626,68.0787619 94.1560356,69.7165792 C94.4204085,71.3543965 91.8401286,66.9680175 91.8401286,66.9680175 Z" id="Path" fill="#000000" opacity="0.1"></path>
                <path d="M122.194069,130.494285 C122.194069,130.494285 135.16702,132.018457 137.760193,128.48515 C137.760193,128.505527 126.059031,131.166714 122.194069,130.494285 Z" id="Path" fill="#000000" opacity="0.1"></path>
                <path d="M99.6231904,129.263848 C99.6231904,129.263848 113.270164,132.296149 115.96762,129.898439 C115.96762,129.898439 104.240457,130.729297 99.6231904,129.263848 Z" id="Path" fill="#000000" opacity="0.1"></path>
                <path d="M122.972376,134.696998 C122.972376,134.696998 128.548102,134.696998 131.132472,134.741998 C133.716841,134.786998 122.972376,134.696998 122.972376,134.696998 Z" id="Path" fill="#000000" opacity="0.1"></path>
                <path d="M100.401497,137.050827 C100.401497,137.050827 103.359354,139.825893 106.702063,139.326868 C110.044771,138.827843 100.401497,137.050827 100.401497,137.050827 Z" id="Path" fill="#000000" opacity="0.1"></path>
                <path d="M106.285861,5.4188032 C105.399693,6.80002305 105.36817,8.39914528 105.136995,9.93149097 C104.597589,13.5128218 102.849772,16.981687 100.11421,19.9057962 C97.6028179,22.5838866 94.1597234,25.0124436 93.5082325,28.2844937 C92.8917679,31.3913598 94.9828437,34.3822455 96.0791698,37.422335 C98.9688473,45.3968588 94.9338067,53.7614981 93.7569199,61.9925844 C93.4311744,64.2665011 93.82347,67.1730375 96.6150736,67.9286667 C97.4872308,68.1676564 98.4854831,68.1360254 99.2700743,68.5155973 C100.320866,69.0216931 100.643109,70.0725448 100.835754,71.0179599 C101.538333,74.3997264 101.781055,77.8614144 101.557298,81.308575 C101.431203,83.2415799 101.291097,85.4662928 103.11247,86.7947944 C103.939093,87.4028123 105.052932,87.7120931 106.128242,88.0038011 C108.996904,88.7805176 112.706199,89.4096228 114.639656,87.5855691 C115.452268,86.8229108 115.756998,85.7474572 116.769261,85.1429538 C118.285904,84.2397134 120.436524,84.8512458 122.345463,84.9461388 C126.264916,85.1429538 129.86563,82.8374062 131.410294,80.0573958 C132.954958,77.2773812 132.811349,74.0826513 132.250927,71.0847365 C131.690505,68.0868216 130.68875,65.1099941 130.618697,62.06639 C130.594179,61.0120237 130.68875,59.9400847 131.291204,59.0052132 C132.457583,57.1952177 135.172128,56.372812 137.028527,54.9494175 C140.506648,52.2783562 140.49614,47.9027361 139.231687,44.2405704 C137.967235,40.5784048 135.697524,37.067365 135.417313,33.28219 C135.292255,32.3671686 135.473348,31.4363737 135.932201,30.6357306 C136.429576,29.8660432 137.298231,29.2896563 138.033785,28.6535219 C143.109109,24.3517074 142.510158,17.2874532 138.313996,12.4514264 C133.669496,7.09173106 112.625638,-4.45357994 106.285861,5.4188032 Z" id="Path" fill="#E3787D"></path>
                <g id="Group" opacity="0.1" transform="translate(93.396741, 17.910051)" fill="#000000">
                    <path d="M3.48265611,22.8245843 C3.87824114,19.6395141 3.80472534,16.4824753 2.68098378,13.3814994 C2.12786488,11.8607949 1.32619256,10.3506021 0.741566888,8.82639358 C0.449529209,9.3774955 0.237355866,9.96740044 0.111431435,10.5783574 C-0.504701008,13.6758294 1.58524824,16.6576717 2.68098378,19.6885691 C3.04984674,20.7052075 3.31835229,21.7555587 3.48265611,22.8245843 Z" id="Path"></path>
                    <path d="M8.15616072,57.1350432 C8.37922843,53.6984679 8.13783107,50.2474798 7.43850645,46.8755432 C7.24246431,45.9329867 6.92039508,44.8888163 5.87016932,44.3842507 C5.08600076,44.0058265 4.08828629,44.0338579 3.21659892,43.7990948 C2.13128015,43.5386641 1.22690885,42.7912345 0.766072155,41.7738246 C0.60503754,42.5727201 0.465007439,43.3681117 0.349482606,44.1670072 C0.0239126219,46.4340483 0.415996904,49.3317964 3.20609666,50.0851409 C4.07778403,50.319904 5.0754985,50.2883687 5.85966707,50.6667928 C6.90989282,51.1713584 7.23196205,52.2190328 7.42800419,53.1615893 C7.74914383,54.72536 7.97361812,56.3074668 8.10014868,57.8988994 C8.12465394,57.6396087 8.13865695,57.3873259 8.15616072,57.1350432 Z" id="Path"></path>
                    <path d="M37.9965752,55.8911489 C36.4492425,58.6732674 32.850469,60.9613321 28.9331269,60.7651121 C27.0252168,60.6670022 24.8757547,60.0643266 23.3634296,60.9613321 C22.3517122,61.5605037 22.0436459,62.6362095 21.2314714,63.3965617 C19.299056,65.2010845 15.5917591,64.5878971 12.7246427,63.8135291 C11.6499117,63.5191992 10.5401732,63.2143575 9.71049483,62.608178 C8.91981996,62.0261197 8.38627957,61.1591156 8.22267501,60.190468 C8.24367953,61.2661738 8.22267501,62.3453835 8.15616072,63.4210892 C8.03013362,65.3482494 7.89010352,67.5662356 9.71049483,68.8942241 C10.5401732,69.4968997 11.6499117,69.8052453 12.7246427,70.0960713 C15.5917591,70.8704393 19.299056,71.4976423 21.2314714,69.6791039 C22.0436459,68.9187516 22.3517122,67.8465498 23.3634296,67.2263546 C24.8757547,66.3258452 27.0252168,66.9355286 28.9331269,67.0301347 C32.850469,67.2263546 36.4492425,64.9277781 37.9965752,62.1561714 C39.4808942,59.4791707 39.4143799,56.4517773 38.8962686,53.561037 C38.7011059,54.3742915 38.3985455,55.1578911 37.9965752,55.8911489 Z" id="Path"></path>
                    <path d="M44.6270004,4.65671976 C43.8778394,5.28742672 43.0096528,5.86557477 42.5265489,6.63293491 C42.0679431,7.43115717 41.8869478,8.35913763 42.0119383,9.27139238 C42.1136115,10.4180045 42.3558152,11.5477446 42.7330933,12.6351629 C43.3160904,12.012839 43.9547191,11.4451755 44.6410034,10.9392619 C48.0717409,8.0415138 48.90492,3.88235176 47.7916807,0 C47.2042877,1.82364178 46.1058265,3.43999027 44.6270004,4.65671976 Z" id="Path"></path>
                    <path d="M43.6082814,30.8555863 C41.7563834,32.274677 39.0397994,33.0980999 37.8775496,34.9026226 C37.2719194,35.8346674 37.1773991,36.9103732 37.2019043,37.9510396 C37.2449521,39.1764784 37.3948876,40.3958096 37.6500007,41.5951243 C37.7162491,41.4533492 37.7922827,41.3163646 37.8775496,41.1851648 C39.0397994,39.3806421 41.7563834,38.560723 43.6082814,37.1416324 C46.783464,34.7099066 47.0495212,30.8625941 46.1113195,27.432249 C45.6353247,28.7969327 44.7639154,29.9887356 43.6082814,30.8555863 Z" id="Path"></path>
                </g>
                <path d="M156.516933,56.0662472 C156.516933,56.0662472 165.644306,55.5899208 166.434922,51.7117706 C167.225537,47.8336204 163.964249,43.8914861 163.166574,43.4755891 C162.368899,43.0596922 153.763897,36.4622158 153.763897,36.4622158 L139.89283,27.539982 C139.89283,27.539982 133.246719,8.34473815 131.774904,15.6922509 C130.303088,23.0397637 136.049169,32.797346 136.049169,32.797346 C136.049169,32.797346 144.011796,37.9516245 144.908298,39.4907987 C145.804799,41.0299729 151.293224,45.0680834 151.293224,45.0680834 L156.516933,56.0662472 Z" id="Path" fill="#EFB7B9"></path>
                <path d="M160.866833,50.0650178 C158.729294,55.3882344 155.959574,57.4867114 155.959574,57.4867114 L154.419288,57.4867114 L140.878047,57.623643 L139.316805,53.4438054 L141.510228,44.3857791 L142.8654,44.4405517 C142.8654,44.4405517 144.486018,45.2587181 145.474455,45.2587181 C146.462892,45.2587181 148.401347,45.2073688 148.967166,45.4606922 C149.046217,45.4985361 149.135216,45.5116804 149.222134,45.4983484 C149.735563,45.4469991 150.269947,44.6938752 150.269947,44.6938752 C150.269947,44.6938752 163.007865,44.7452246 160.866833,50.0650178 Z" id="Path" fill="#A36468"></path>
                <path d="M160.871808,49.9519806 C158.775534,55.4544875 156.059284,57.623643 156.059284,57.623643 L154.548734,57.623643 C155.336549,55.4438718 156.997812,50.9710944 157.63149,49.9378262 C158.251466,48.9611755 152.688805,46.5301644 149.434786,45.2173476 C149.938302,45.1642688 150.462371,44.3857791 150.462371,44.3857791 C150.462371,44.3857791 162.971507,44.4530123 160.871808,49.9519806 Z" id="Path" fill="#000000" opacity="0.1"></path>
                <ellipse id="Oval" fill="#6C63FF" opacity="0.1" cx="18.6793482" cy="219.592802" rx="15.5661235" ry="3.11479151"></ellipse>
                <path d="M33.3158776,134.714733 C33.3158776,134.714733 35.8103229,138.089398 32.1651252,143.178123 C28.5199275,148.266848 25.5190134,152.564468 26.7386731,155.739576 C26.7386731,155.739576 32.2340325,146.285524 36.7095635,146.153673 C41.1850945,146.021822 38.2393062,140.402131 33.3158776,134.714733 Z" id="Path" fill="#6C63FF"></path>
                <path d="M33.2543015,134.714733 C33.4750338,135.044041 33.6486986,135.403833 33.7700531,135.783249 C38.1853053,141.086653 40.537551,146.033884 36.2930544,146.158545 C32.3412817,146.27252 27.5984575,153.499253 26.4624099,155.322854 C26.4987767,155.464641 26.5441761,155.603845 26.5983175,155.739576 C26.5983175,155.739576 32.1565868,146.290328 36.6833529,146.158545 C41.210119,146.026761 38.2340926,140.399241 33.2543015,134.714733 Z" id="Path" fill="#000000" opacity="0.1"></path>
                <path d="M38.1370026,139.428335 C38.1370026,140.701882 37.9645635,141.723014 37.7501797,141.723014 C37.535796,141.723014 37.3586964,140.690408 37.3586964,139.428335 C37.3586964,138.166262 37.5777406,138.755229 37.7921244,138.755229 C38.0065081,138.755229 38.1370026,138.13949 38.1370026,139.428335 Z" id="Path" fill="#FFD037"></path>
                <path d="M39.1374772,140.953131 C38.2270477,141.498632 37.4319808,141.831422 37.3633868,141.690758 C37.2947928,141.550094 37.9869686,141.004593 38.8880445,140.448799 C39.7891203,139.893005 39.4399144,140.301273 39.5116263,140.448799 C39.5833383,140.596324 40.0479068,140.404198 39.1374772,140.953131 Z" id="Path" fill="#FFD037"></path>
                <path d="M19.6110928,134.714733 C19.6110928,134.714733 17.1197044,138.089398 20.760435,143.178123 C24.4011655,148.266848 27.3984021,152.564468 26.1905605,155.739576 C26.1905605,155.739576 20.6847298,146.285524 16.2112424,146.153673 C11.7377549,146.021822 14.6936978,140.402131 19.6110928,134.714733 Z" id="Path" fill="#6C63FF"></path>
                <path d="M19.6782434,134.714733 C19.4577622,135.044041 19.2842948,135.403833 19.1630784,135.783249 C14.7528481,141.086653 12.4032778,146.033884 16.6429468,146.158545 C20.5902248,146.27252 25.3450588,153.499253 26.4624099,155.322854 C26.4256747,155.464094 26.3815198,155.603203 26.3301378,155.739576 C26.3301378,155.739576 20.7607862,146.290328 16.2356879,146.158545 C11.7105897,146.026761 14.7041162,140.399241 19.6782434,134.714733 Z" id="Path" fill="#000000" opacity="0.1"></path>
                <path d="M14.7878173,139.428335 C14.7878173,140.701882 14.9602564,141.723014 15.1746401,141.723014 C15.3890239,141.723014 15.5661235,140.690408 15.5661235,139.428335 C15.5661235,138.166262 15.3470792,138.755229 15.1326955,138.755229 C14.9183118,138.755229 14.7878173,138.13949 14.7878173,139.428335 Z" id="Path" fill="#FFD037"></path>
                <path d="M13.0082006,140.953131 C13.920375,141.498632 14.7111337,141.831422 14.7827379,141.690758 C14.854342,141.550094 14.1600932,141.004593 13.2572585,140.448799 C12.3544238,139.893005 12.706218,140.301273 12.6346138,140.448799 C12.5630097,140.596324 12.0991394,140.404198 13.0082006,140.953131 Z" id="Path" fill="#FFD037"></path>
                <ellipse id="Oval" fill="#6C63FF" opacity="0.1" cx="26.4624099" cy="177.153767" rx="26.4624099" ry="4.28283833"></ellipse>
                <path d="M39.6877264,151.828508 L39.561762,152.871274 L39.3833124,154.320719 L39.3098332,154.925523 L39.1313837,156.378444 L39.0544054,156.983248 L38.8759559,158.432692 L36.8535278,174.922298 C36.6715792,176.396074 34.2502639,177.543116 31.325091,177.543116 L20.8210612,177.543116 C17.8958883,177.543116 15.478072,176.396074 15.2961234,174.922298 L13.2701963,158.429217 L13.0917467,156.979772 L13.0182675,156.374968 L12.836319,154.922047 L12.7628397,154.317243 L12.5843902,152.867798 L12.4584258,151.825032 C12.3569545,150.99082 13.6655845,150.288691 15.3206165,150.288691 L36.8465297,150.288691 C38.4805677,150.292166 39.7926967,150.994295 39.6877264,151.828508 Z" id="Path" fill="#65617D"></path>
                <polygon id="Path" fill="#9D9CB5" points="39.6936149 152.624784 39.5170482 154.18218 12.6294655 154.18218 12.4528988 152.624784"></polygon>
                <polygon id="Path" fill="#9D9CB5" points="39.6936149 154.18218 39.5188302 155.739576 13.4094854 155.739576 13.231205 154.18218"></polygon>
                <polygon id="Path" fill="#9D9CB5" points="39.6936149 156.518274 39.5118774 158.075669 13.4129425 158.075669 13.231205 156.518274"></polygon>
            </g>
        </g>
    </g>
</svg>